<?xml version="1.0" encoding="iso-8859-1"?>
<!-- Generator: Adobe Illustrator 19.0.0, SVG Export Plug-In . SVG Version: 6.00 Build 0)  -->
<svg version="1.1" id="Layer_1" xmlns="http://www.w3.org/2000/svg" xmlns:xlink="http://www.w3.org/1999/xlink" x="0px" y="0px"
	fill="#ffba00"   viewBox="0 0 512 512" style="enable-background:new 0 0 512 512;" xml:space="preserve">
<g>
	<g>
		<path d="M502.541,411.908c-6.099-6.1-14.21-9.459-22.836-9.459c-5.486,0-10.76,1.364-15.445,3.922L342.603,261.007l150.42-150.42
			c25.261-25.261,25.261-66.364,0-91.626c-25.26-25.26-66.364-25.262-91.627,0L256,164.358L110.602,18.961
			c-25.261-25.26-66.363-25.261-91.626,0c-25.261,25.261-25.261,66.364,0,91.626l150.42,150.421L47.74,406.371
			c-4.685-2.558-9.96-3.922-15.445-3.922c-8.626,0-16.737,3.359-22.837,9.459S0,426.118,0,434.744
			c0,8.627,3.359,16.736,9.459,22.836l44.946,44.946c6.1,6.099,14.211,9.459,22.836,9.459c8.627,0,16.737-3.359,22.837-9.459
			c6.099-6.1,9.459-14.211,9.459-22.837c0-5.486-1.364-10.761-3.922-15.445L256,338.385l150.386,125.859
			c-2.558,4.685-3.922,9.959-3.922,15.445c0,8.626,3.36,16.737,9.459,22.836c6.099,6.1,14.21,9.459,22.837,9.459
			c8.626,0,16.736-3.359,22.836-9.459l44.945-44.945c6.099-6.099,9.459-14.211,9.459-22.836
			C512,426.118,508.64,418.007,502.541,411.908z M415.822,33.385c17.308-17.309,45.472-17.308,62.778,0
			c17.308,17.308,17.308,45.47,0,62.777l-149.139,149.14l-38.11-45.537c-0.193-0.232-0.397-0.453-0.61-0.666l-20.316-20.316
			L415.822,33.385z M85.653,488.102c-2.247,2.247-5.234,3.485-8.412,3.485c-3.177,0-6.165-1.237-8.412-3.485l-44.946-44.946
			c-4.639-4.639-4.639-12.186,0-16.825c2.247-2.247,5.234-3.485,8.412-3.485c3.177,0,6.165,1.237,8.412,3.485l44.946,44.946
			C90.292,475.916,90.292,483.464,85.653,488.102z M92.144,448.919l-29.078-29.078l120.812-144.353l15.237,15.237
			c0.213,0.212,0.435,0.416,0.666,0.61l40.329,33.751L92.144,448.919z M213.217,275.982L33.4,96.162
			c-17.308-17.307-17.308-45.469,0-62.777c17.307-17.308,45.469-17.308,62.777,0l179.818,179.818l172.939,206.639l-29.078,29.078
			L213.217,275.982z M488.117,443.156l-44.945,44.946c-2.247,2.247-5.234,3.484-8.411,3.484c-3.178,0-6.165-1.237-8.412-3.485
			c-2.248-2.247-3.485-5.234-3.485-8.412c0-3.177,1.237-6.164,3.485-8.412l44.945-44.945c2.247-2.247,5.234-3.485,8.412-3.485
			c3.177,0,6.164,1.237,8.411,3.485c2.248,2.247,3.485,5.234,3.485,8.412C491.602,437.921,490.364,440.909,488.117,443.156z"/>
	</g>
</g>
<g>
	<g>
		<path d="M213.236,168.199l-99.952-99.952c-3.983-3.983-10.441-3.983-14.425,0c-3.984,3.983-3.983,10.441,0,14.425l99.952,99.952
			c1.992,1.992,4.602,2.987,7.212,2.987s5.221-0.995,7.212-2.987C217.219,178.64,217.219,172.182,213.236,168.199z"/>
	</g>
</g>
<g>
	<g>
		<path d="M89.824,44.789l-4.079-4.08c-3.983-3.983-10.441-3.983-14.425,0c-3.983,3.983-3.983,10.441,0,14.425l4.08,4.08
			c1.992,1.992,4.602,2.987,7.212,2.987c2.61,0,5.221-0.995,7.212-2.987C93.807,55.231,93.807,48.773,89.824,44.789z"/>
	</g>
</g>
<g>
</g>
<g>
</g>
<g>
</g>
<g>
</g>
<g>
</g>
<g>
</g>
<g>
</g>
<g>
</g>
<g>
</g>
<g>
</g>
<g>
</g>
<g>
</g>
<g>
</g>
<g>
</g>
<g>
</g>
</svg>
